<?xml version="1.0" standalone="no"?><!DOCTYPE svg PUBLIC "-//W3C//DTD SVG 1.1//EN" "http://www.w3.org/Graphics/SVG/1.1/DTD/svg11.dtd"><svg t="1732438881079" class="icon" viewBox="0 0 1024 1024" version="1.1" xmlns="http://www.w3.org/2000/svg" p-id="5091" xmlns:xlink="http://www.w3.org/1999/xlink" width="200" height="200"><path d="M512 32c265.088 0 480 214.912 480 480 0 261.76-209.504 474.56-469.952 479.904L512 992C246.912 992 32 777.088 32 512 32 250.24 241.504 37.44 501.952 32.096L512 32z m0 608c-171.552 0-271.136 58.88-286.08 174.016A414.464 414.464 0 0 0 512 928c110.816 0 211.52-43.328 286.048-113.92C783.136 698.88 683.52 640 512 640z m0-384a160 160 0 1 0 0 320 160 160 0 0 0 0-320z" fill="#2c2c2c" p-id="5092"></path></svg>